<svg xmlns="http://www.w3.org/2000/svg" fill="none" viewBox="0 0 13 18">
  <path d="M10.242 2.97h-.338c-.231 1.062-1.166 1.818-2.297 1.818H5.403c-1.131 0-2.066-.756-2.297-1.818h-.379v12.242h7.515V2.97zM6.485 13.333h-3.03v-.909h3.03v.91zm0-2.909h-3.03v-.909h3.03v.91zm0-2.909h-3.03v-.909h3.03v.91zm1.691 6.24l-1.039-.847.574-.705.375.305.862-.937.67.615-1.442 1.568zm0-2.91l-1.039-.847.574-.704.375.305.862-.937.67.615-1.442 1.568zm0-2.909l-1.039-.847.574-.704.375.305.862-.937.67.615-1.442 1.568z" fill="#fff"/>
  <path d="M11.838 2.97h-.626v13.212H1.758V2.97H1.11c-.067 0-.141.054-.141.12v13.82c0 .066.074.12.141.12h10.727c.067 0 .101-.054.101-.12V3.09c0-.066-.034-.12-.1-.12z" fill="#FF8200"/>
  <path d="M11.838 2H8.8a2.32 2.32 0 00-2.295-2A2.32 2.32 0 004.21 2H1.111C.51 2 0 2.49 0 3.09v13.82C0 17.51.51 18 1.111 18h10.727c.602 0 1.071-.49 1.071-1.09V3.09c0-.6-.47-1.09-1.07-1.09zm-2.954.97c-.207.545-.698.848-1.277.848H5.403c-.579 0-1.07-.303-1.277-.848h4.758zm-6.157 0h.38c.23 1.062 1.165 1.818 2.296 1.818h2.204c1.131 0 2.066-.756 2.297-1.818h.338v12.242H2.727V2.97zm3.778-2c.634 0 1.166.44 1.31 1.03h-2.62A1.35 1.35 0 016.506.97zm5.434 15.94c0 .066-.034.12-.1.12H1.11c-.067 0-.141-.054-.141-.12V3.09c0-.066.074-.12.141-.12h.647v13.212h9.454V2.97h.626c.067 0 .101.054.101.12v13.82z" fill="#000"/>
  <path d="M5.403 3.818h2.204c.579 0 1.07-.303 1.277-.848H4.126c.207.545.698.848 1.277.848z" fill="#FFBE00"/>
  <path d="M6.485 6.606h-3.03v.91h3.03v-.91zm1.601.084l-.375-.305-.574.704 1.04.847 1.44-1.568-.669-.615-.862.937zM6.485 9.515h-3.03v.91h3.03v-.91zm1.601.085l-.375-.306-.574.705 1.04.846 1.44-1.568-.669-.615-.862.937zm-1.601 2.824h-3.03v.91h3.03v-.91zm1.601.084l-.375-.305-.574.705 1.04.846 1.44-1.568-.669-.615-.862.938z" fill="#000"/>
</svg>
