<svg xmlns="http://www.w3.org/2000/svg" fill="none" viewBox="0 0 13 18">
  <path d="M1.931.64h.642c.181 0 .322.142.322.323v.645c0 .53.435.965.963.965h.646a.968.968 0 00.963-.965V.963c0-.181.141-.323.322-.323h.646c.181 0 .318.142.318.323v.645c0 .53.439.965.968.965h.636a.968.968 0 00.963-.965V.963A.32.32 0 019.643.64h.645a.32.32 0 01.323.323v3.218a.315.315 0 01-.323.318H1.931a.315.315 0 01-.323-.318V.963A.32.32 0 011.931.64z" fill="#fff"/>
  <path d="M2.568 5.144h7.08l.311 8.357H2.255l.313-8.357z" fill="#29A3EC"/>
  <path d="M.968 14.142h10.283c.181 0 .323.141.323.322v2.573a.319.319 0 01-.323.323H.968a.319.319 0 01-.323-.323v-2.573a.32.32 0 01.323-.322z" fill="#EE746C"/>
  <path d="M2.823 5.446h6.57L9.68 13.2H2.533l.29-7.754z" fill="#3CDEF6"/>
  <path d="M1.497 14.385h9.225c.162 0 .29.12.29.274v2.184c0 .154-.127.274-.29.274H1.497c-.162 0-.29-.12-.29-.274v-2.184c0-.154.128-.274.29-.274z" fill="#FB9761"/>
  <path d="M2.439.875h.563a.28.28 0 01.284.283v.567a.85.85 0 00.846.847h.567a.85.85 0 00.846-.847v-.567a.28.28 0 01.283-.283h.567c.16 0 .28.124.28.283v.567c0 .465.385.847.85.847h.56a.85.85 0 00.845-.847v-.567a.28.28 0 01.284-.283h.566a.28.28 0 01.284.283v2.827c0 .16-.124.28-.284.28H2.44a.276.276 0 01-.284-.28V1.158A.28.28 0 012.44.875z" fill="#EBFEFF"/>
  <path d="M1.931 0a.967.967 0 00-.963.963v1.092h.64V.963A.32.32 0 011.931.64h.642c.181 0 .322.142.322.323v.645c0 .53.435.965.963.965h.646a.968.968 0 00.963-.965V.963c0-.181.141-.323.322-.323h.646c.181 0 .318.142.318.323v.645c0 .53.439.965.968.965h.636a.968.968 0 00.963-.965V.963A.32.32 0 019.643.64h.645a.32.32 0 01.323.323v3.218a.315.315 0 01-.323.318H1.931a.315.315 0 01-.323-.318v-.418h-.64v.418c0 .527.431.958.957.962L1.613 13.5H.968a.971.971 0 00-.968.963v2.573c0 .529.44.963.968.963h10.283a.968.968 0 00.965-.963v-2.573a.968.968 0 00-.965-.963h-.645l-.312-8.358a.964.964 0 00.957-.962V.963A.967.967 0 0010.288 0h-.645a.967.967 0 00-.963.963v.645a.319.319 0 01-.323.323h-.636a.319.319 0 01-.323-.323V.963A.967.967 0 006.435 0h-.646a.967.967 0 00-.963.963v.645a.319.319 0 01-.322.323h-.646a.319.319 0 01-.322-.323V.963A.967.967 0 002.573 0H1.93zM.968 2.538v.743h.64v-.743h-.64zm1.6 2.606h7.08l.311 8.357H2.255l.313-8.357zm-1.6 8.998h10.283c.181 0 .323.141.323.322v2.573a.319.319 0 01-.323.323H.968a.319.319 0 01-.323-.323v-2.573c0-.181.142-.322.323-.322z" fill="#5A3392"/>
</svg>
